<svg width="1294" height="1290" viewBox="0 0 1294 1290" fill="none" xmlns="http://www.w3.org/2000/svg">
<path d="M1195.29 425.979C1106.8 209.845 914.351 74.1022 682.385 55.9377C665.121 54.5467 656.202 45.1781 655.629 27.8318C655.466 24.8043 655.875 21.7769 656.857 18.7495C660.703 6.96711 668.803 0.871358 681.158 0.462247C704.968 -0.192331 730.906 2.1396 758.971 7.45804C1061.88 64.8972 1279.48 309.382 1292.98 619.406C1302.43 838.976 1194.8 1048.97 1016.1 1172.93C599.909 1461.48 24.412 1181.03 0.478959 674.882C-0.175618 660.399 5.96105 649.967 18.889 643.585C21.4254 642.439 24.0847 641.948 26.8666 642.112C45.7676 643.585 55.9135 653.813 57.3045 672.795C90.5652 1144.58 606.659 1393.73 991.673 1123.23C1210.88 969.196 1297.03 674.759 1195.29 425.979Z" fill="white"/>
<path d="M682.877 106.995C898.887 117.182 1081.02 258.325 1157.61 458.749C1250.52 701.515 1147.05 981.715 922.575 1110.83C705.705 1235.65 442.197 1199.44 262.27 1022.71C251.224 1011.91 251.264 1001.11 262.392 990.307L268.529 984.293C278.348 974.801 288.535 974.351 299.09 982.943C337.505 1013.99 372.852 1045.17 417.527 1068.86C500.086 1112.71 587.84 1131.61 680.79 1125.56C1036.72 1102.61 1247.33 703.97 1062.49 398.486C978.05 258.816 847.871 179.612 671.953 160.875C657.389 159.32 651.375 151.342 653.912 136.942L655.262 129.087C657.962 113.541 667.167 106.177 682.877 106.995Z" fill="white"/>
<path d="M926.625 895.802C1041.26 768.65 1055.74 579.15 961.358 437.884C896.964 341.497 802.95 285.285 679.317 269.248C662.462 267.039 653.993 257.384 653.911 240.283C653.911 236.519 655.139 233.001 657.593 229.728C665.203 219.664 675.308 214.918 687.908 215.491C729.801 217.455 768.871 226.414 805.119 242.37C961.399 311.1 1051.08 430.152 1074.15 599.524C1088.88 707.284 1050.71 830.14 980.259 915.807C899.255 1014.32 793.786 1068.12 663.853 1077.2C658.727 1077.52 653.607 1076.33 649.125 1073.77C633.169 1064.52 626.501 1055.15 629.119 1045.66C633.374 1030.03 643.602 1021.73 659.802 1020.74C768.299 1014.53 857.239 972.878 926.625 895.802Z" fill="white"/>
<path d="M647.284 918.017C798.374 918.017 920.856 795.534 920.856 644.444C920.856 493.354 798.374 370.871 647.284 370.871C496.194 370.871 373.711 493.354 373.711 644.444C373.711 795.534 496.194 918.017 647.284 918.017Z" fill="white"/>
</svg>
